<svg width="577" height="129" viewBox="0 0 577 129" fill="none" xmlns="http://www.w3.org/2000/svg">
<path d="M48.2646 9.64746C53.0529 6.88997 58.9471 6.88996 63.7354 9.64746L99.7354 30.3799C104.539 33.1465 107.5 38.2679 107.5 43.8115V85.1885C107.5 90.7321 104.539 95.8535 99.7354 98.6201L63.7354 119.353C58.9471 122.11 53.0529 122.11 48.2646 119.353L12.2646 98.6201C7.46073 95.8535 4.50003 90.7321 4.5 85.1885V43.8115C4.50002 38.2679 7.46073 33.1465 12.2646 30.3799L48.2646 9.64746Z" stroke="url(#paint0_linear_1525_143)" stroke-width="9"/>
<path d="M158.088 82.916C152.333 82.916 147.203 81.7027 142.696 79.276C138.259 76.78 134.757 73.3827 132.192 69.084C129.696 64.716 128.448 59.724 128.448 54.108C128.448 48.4227 129.627 43.4307 131.984 39.132C134.411 34.764 137.739 31.3667 141.968 28.94C146.197 26.444 151.051 25.196 156.528 25.196C161.936 25.196 166.581 26.4093 170.464 28.836C174.347 31.1933 177.293 34.4867 179.304 38.716C181.384 42.876 182.424 47.6947 182.424 53.172C182.424 54.4893 181.973 55.5987 181.072 56.5C180.171 57.332 179.027 57.748 177.64 57.748H135.728V49.428H177.328L173.064 52.34C172.995 48.8733 172.301 45.788 170.984 43.084C169.667 40.3107 167.795 38.1267 165.368 36.532C162.941 34.9373 159.995 34.14 156.528 34.14C152.576 34.14 149.179 35.0067 146.336 36.74C143.563 38.4733 141.448 40.8653 139.992 43.916C138.536 46.8973 137.808 50.2947 137.808 54.108C137.808 57.9213 138.675 61.3187 140.408 64.3C142.141 67.2813 144.533 69.6387 147.584 71.372C150.635 73.1053 154.136 73.972 158.088 73.972C160.237 73.972 162.421 73.5907 164.64 72.828C166.928 71.996 168.765 71.06 170.152 70.02C171.192 69.2573 172.301 68.876 173.48 68.876C174.728 68.8067 175.803 69.1533 176.704 69.916C177.883 70.956 178.507 72.1 178.576 73.348C178.645 74.596 178.091 75.6707 176.912 76.572C174.555 78.444 171.608 79.9693 168.072 81.148C164.605 82.3267 161.277 82.916 158.088 82.916ZM198.97 84.164C197.028 84.164 195.33 83.4707 193.874 82.084C192.487 80.628 191.794 78.9293 191.794 76.988C191.794 74.9773 192.487 73.2787 193.874 71.892C195.33 70.436 197.028 69.708 198.97 69.708C200.98 69.708 202.679 70.436 204.066 71.892C205.452 73.2787 206.146 74.9773 206.146 76.988C206.146 78.9293 205.452 80.628 204.066 82.084C202.679 83.4707 200.98 84.164 198.97 84.164ZM295.407 82.604C293.882 82.604 292.599 82.1187 291.559 81.148C290.588 80.108 290.103 78.8253 290.103 77.3V47.556C290.103 43.188 289.028 39.964 286.879 37.884C284.73 35.7347 281.922 34.66 278.455 34.66C274.85 34.66 271.868 35.908 269.511 38.404C267.223 40.9 266.079 44.0893 266.079 47.972H257.447C257.447 43.4653 258.418 39.5133 260.359 36.116C262.3 32.6493 265.004 29.9453 268.471 28.004C272.007 26.0627 276.028 25.092 280.535 25.092C284.487 25.092 287.988 25.9587 291.039 27.692C294.09 29.4253 296.447 31.9907 298.111 35.388C299.844 38.716 300.711 42.772 300.711 47.556V77.3C300.711 78.8253 300.226 80.108 299.255 81.148C298.284 82.1187 297.002 82.604 295.407 82.604ZM226.039 82.604C224.514 82.604 223.231 82.1187 222.191 81.148C221.22 80.108 220.735 78.8253 220.735 77.3V31.02C220.735 29.4253 221.22 28.1427 222.191 27.172C223.231 26.2013 224.514 25.716 226.039 25.716C227.634 25.716 228.916 26.2013 229.887 27.172C230.858 28.1427 231.343 29.4253 231.343 31.02V77.3C231.343 78.8253 230.858 80.108 229.887 81.148C228.916 82.1187 227.634 82.604 226.039 82.604ZM260.775 82.604C259.25 82.604 257.967 82.1187 256.927 81.148C255.956 80.108 255.471 78.8253 255.471 77.3V47.556C255.471 43.188 254.396 39.964 252.247 37.884C250.098 35.7347 247.29 34.66 243.823 34.66C240.218 34.66 237.236 35.908 234.879 38.404C232.522 40.9 231.343 44.0893 231.343 47.972H224.791C224.791 43.4653 225.692 39.5133 227.495 36.116C229.298 32.6493 231.794 29.9453 234.983 28.004C238.172 26.0627 241.812 25.092 245.903 25.092C249.855 25.092 253.356 25.9587 256.407 27.692C259.458 29.4253 261.815 31.9907 263.479 35.388C265.212 38.716 266.079 42.772 266.079 47.556V77.3C266.079 78.8253 265.594 80.108 264.623 81.148C263.652 82.1187 262.37 82.604 260.775 82.604ZM342.049 82.916C336.987 82.916 332.446 81.668 328.425 79.172C324.403 76.6067 321.214 73.1747 318.857 68.876C316.569 64.508 315.425 59.5853 315.425 54.108C315.425 48.6307 316.673 43.708 319.169 39.34C321.734 34.972 325.166 31.54 329.465 29.044C333.833 26.4787 338.721 25.196 344.129 25.196C349.537 25.196 354.39 26.4787 358.689 29.044C362.987 31.54 366.385 34.972 368.881 39.34C371.446 43.708 372.729 48.6307 372.729 54.108H368.673C368.673 59.5853 367.494 64.508 365.137 68.876C362.849 73.1747 359.694 76.6067 355.673 79.172C351.651 81.668 347.11 82.916 342.049 82.916ZM344.129 73.556C347.665 73.556 350.819 72.724 353.593 71.06C356.366 69.3267 358.55 67.004 360.145 64.092C361.739 61.1107 362.537 57.7827 362.537 54.108C362.537 50.364 361.739 47.036 360.145 44.124C358.55 41.1427 356.366 38.82 353.593 37.156C350.819 35.4227 347.665 34.556 344.129 34.556C340.662 34.556 337.507 35.4227 334.665 37.156C331.891 38.82 329.673 41.1427 328.009 44.124C326.414 47.036 325.617 50.364 325.617 54.108C325.617 57.7827 326.414 61.1107 328.009 64.092C329.673 67.004 331.891 69.3267 334.665 71.06C337.507 72.724 340.662 73.556 344.129 73.556ZM367.425 82.604C365.899 82.604 364.617 82.1187 363.577 81.148C362.606 80.108 362.121 78.8253 362.121 77.3V61.388L364.097 50.364L372.729 54.108V77.3C372.729 78.8253 372.209 80.108 371.169 81.148C370.198 82.1187 368.95 82.604 367.425 82.604ZM409.212 82.916C404.359 82.916 399.852 82.188 395.692 80.732C391.602 79.2067 388.412 77.3 386.124 75.012C385.084 73.9027 384.634 72.6547 384.772 71.268C384.98 69.812 385.674 68.6333 386.852 67.732C388.239 66.6227 389.591 66.172 390.908 66.38C392.295 66.5187 393.474 67.108 394.444 68.148C395.623 69.4653 397.495 70.7133 400.06 71.892C402.695 73.0013 405.607 73.556 408.796 73.556C412.818 73.556 415.868 72.8973 417.948 71.58C420.098 70.2627 421.207 68.564 421.276 66.484C421.346 64.404 420.34 62.6013 418.26 61.076C416.25 59.5507 412.54 58.3027 407.132 57.332C400.13 55.9453 395.034 53.8653 391.844 51.092C388.724 48.3187 387.164 44.9213 387.164 40.9C387.164 37.364 388.204 34.452 390.284 32.164C392.364 29.8067 395.034 28.0733 398.292 26.964C401.551 25.7853 404.948 25.196 408.484 25.196C413.06 25.196 417.116 25.924 420.652 27.38C424.188 28.836 426.996 30.8467 429.076 33.412C430.047 34.5213 430.498 35.7 430.428 36.948C430.359 38.1267 429.77 39.132 428.66 39.964C427.551 40.7267 426.234 40.9693 424.708 40.692C423.183 40.4147 421.9 39.7907 420.86 38.82C419.127 37.156 417.255 36.012 415.244 35.388C413.234 34.764 410.911 34.452 408.276 34.452C405.226 34.452 402.626 34.972 400.476 36.012C398.396 37.052 397.356 38.5773 397.356 40.588C397.356 41.836 397.668 42.98 398.292 44.02C398.986 44.9907 400.303 45.892 402.244 46.724C404.186 47.4867 407.028 48.2493 410.772 49.012C415.972 50.052 420.063 51.3693 423.044 52.964C426.095 54.5587 428.279 56.4307 429.596 58.58C430.914 60.66 431.572 63.0867 431.572 65.86C431.572 69.0493 430.706 71.9267 428.972 74.492C427.308 77.0573 424.812 79.1027 421.484 80.628C418.226 82.1533 414.135 82.916 409.212 82.916ZM470.777 82.916C465.161 82.916 460.204 81.7027 455.905 79.276C451.606 76.78 448.209 73.3827 445.713 69.084C443.286 64.716 442.073 59.724 442.073 54.108C442.073 48.4227 443.286 43.4307 445.713 39.132C448.209 34.764 451.606 31.3667 455.905 28.94C460.204 26.444 465.161 25.196 470.777 25.196C476.324 25.196 481.246 26.444 485.545 28.94C489.844 31.3667 493.206 34.764 495.633 39.132C498.129 43.4307 499.377 48.4227 499.377 54.108C499.377 59.724 498.164 64.716 495.737 69.084C493.31 73.3827 489.948 76.78 485.649 79.276C481.35 81.7027 476.393 82.916 470.777 82.916ZM470.777 73.556C474.382 73.556 477.572 72.724 480.345 71.06C483.118 69.396 485.268 67.108 486.793 64.196C488.388 61.284 489.185 57.9213 489.185 54.108C489.185 50.2947 488.388 46.932 486.793 44.02C485.268 41.0387 483.118 38.716 480.345 37.052C477.572 35.388 474.382 34.556 470.777 34.556C467.172 34.556 463.982 35.388 461.209 37.052C458.436 38.716 456.252 41.0387 454.657 44.02C453.062 46.932 452.265 50.2947 452.265 54.108C452.265 57.9213 453.062 61.284 454.657 64.196C456.252 67.108 458.436 69.396 461.209 71.06C463.982 72.724 467.172 73.556 470.777 73.556ZM563.213 82.604C561.687 82.604 560.405 82.1187 559.365 81.148C558.394 80.108 557.909 78.8253 557.909 77.3V51.716C557.909 47.764 557.181 44.54 555.725 42.044C554.269 39.548 552.293 37.7107 549.797 36.532C547.37 35.284 544.562 34.66 541.373 34.66C538.461 34.66 535.826 35.2493 533.469 36.428C531.111 37.6067 529.239 39.2013 527.853 41.212C526.466 43.1533 525.773 45.4067 525.773 47.972H519.221C519.221 43.604 520.261 39.7213 522.341 36.324C524.49 32.8573 527.402 30.1187 531.077 28.108C534.751 26.0973 538.877 25.092 543.453 25.092C548.237 25.092 552.501 26.132 556.245 28.212C560.058 30.2227 563.039 33.204 565.189 37.156C567.407 41.108 568.517 45.9613 568.517 51.716V77.3C568.517 78.8253 567.997 80.108 566.957 81.148C565.986 82.1187 564.738 82.604 563.213 82.604ZM520.469 82.604C518.943 82.604 517.661 82.1187 516.621 81.148C515.65 80.108 515.165 78.8253 515.165 77.3V30.916C515.165 29.3213 515.65 28.0387 516.621 27.068C517.661 26.0973 518.943 25.612 520.469 25.612C522.063 25.612 523.346 26.0973 524.317 27.068C525.287 28.0387 525.773 29.3213 525.773 30.916V77.3C525.773 78.8253 525.287 80.108 524.317 81.148C523.346 82.1187 522.063 82.604 520.469 82.604Z" fill="url(#paint1_linear_1525_143)"/>
<path d="M322.82 120.68C322.527 120.68 322.28 120.58 322.08 120.38C321.893 120.193 321.8 119.953 321.8 119.66V110.54C321.813 109.487 322.06 108.54 322.54 107.7C323.02 106.86 323.673 106.2 324.5 105.72C325.327 105.227 326.26 104.98 327.3 104.98C328.353 104.98 329.293 105.227 330.12 105.72C330.947 106.2 331.6 106.86 332.08 107.7C332.573 108.54 332.82 109.487 332.82 110.54C332.82 111.593 332.593 112.54 332.14 113.38C331.7 114.207 331.093 114.867 330.32 115.36C329.547 115.84 328.673 116.08 327.7 116.08C326.913 116.08 326.187 115.92 325.52 115.6C324.867 115.267 324.307 114.82 323.84 114.26V119.66C323.84 119.953 323.747 120.193 323.56 120.38C323.373 120.58 323.127 120.68 322.82 120.68ZM327.3 114.28C327.98 114.28 328.587 114.12 329.12 113.8C329.653 113.467 330.073 113.02 330.38 112.46C330.7 111.887 330.86 111.247 330.86 110.54C330.86 109.82 330.7 109.18 330.38 108.62C330.073 108.047 329.653 107.6 329.12 107.28C328.587 106.947 327.98 106.78 327.3 106.78C326.633 106.78 326.027 106.947 325.48 107.28C324.947 107.6 324.527 108.047 324.22 108.62C323.913 109.18 323.76 109.82 323.76 110.54C323.76 111.247 323.913 111.887 324.22 112.46C324.527 113.02 324.947 113.467 325.48 113.8C326.027 114.12 326.633 114.28 327.3 114.28ZM340.823 116.08C339.743 116.08 338.789 115.847 337.963 115.38C337.136 114.9 336.483 114.247 336.003 113.42C335.536 112.58 335.303 111.62 335.303 110.54C335.303 109.447 335.536 108.487 336.003 107.66C336.483 106.82 337.136 106.167 337.963 105.7C338.789 105.22 339.743 104.98 340.823 104.98C341.889 104.98 342.836 105.22 343.663 105.7C344.489 106.167 345.136 106.82 345.603 107.66C346.083 108.487 346.323 109.447 346.323 110.54C346.323 111.62 346.089 112.58 345.623 113.42C345.156 114.247 344.509 114.9 343.683 115.38C342.856 115.847 341.903 116.08 340.823 116.08ZM340.823 114.28C341.516 114.28 342.129 114.12 342.663 113.8C343.196 113.48 343.609 113.04 343.903 112.48C344.209 111.92 344.363 111.273 344.363 110.54C344.363 109.807 344.209 109.16 343.903 108.6C343.609 108.027 343.196 107.58 342.663 107.26C342.129 106.94 341.516 106.78 340.823 106.78C340.129 106.78 339.516 106.94 338.983 107.26C338.449 107.58 338.029 108.027 337.723 108.6C337.416 109.16 337.263 109.807 337.263 110.54C337.263 111.273 337.416 111.92 337.723 112.48C338.029 113.04 338.449 113.48 338.983 113.8C339.516 114.12 340.129 114.28 340.823 114.28ZM351.273 116C351.06 116 350.86 115.94 350.673 115.82C350.5 115.687 350.38 115.527 350.313 115.34L347.353 106.46C347.246 106.047 347.246 105.713 347.353 105.46C347.473 105.193 347.726 105.06 348.113 105.06C348.366 105.06 348.573 105.133 348.733 105.28C348.906 105.413 349.046 105.647 349.153 105.98L351.673 113.86H350.973L353.353 105.82C353.42 105.593 353.533 105.413 353.693 105.28C353.853 105.133 354.073 105.06 354.353 105.06C354.62 105.06 354.833 105.133 354.993 105.28C355.166 105.413 355.28 105.593 355.333 105.82L357.273 113.38H356.973L359.333 105.98C359.52 105.367 359.866 105.06 360.373 105.06C360.746 105.06 361 105.193 361.133 105.46C361.266 105.713 361.26 106.047 361.113 106.46L358.153 115.34C358.1 115.527 357.986 115.687 357.813 115.82C357.64 115.94 357.44 116 357.213 116C357 116 356.8 115.94 356.613 115.82C356.426 115.687 356.306 115.527 356.253 115.34L354.193 107.72H354.393L352.233 115.34C352.18 115.527 352.06 115.687 351.873 115.82C351.7 115.94 351.5 116 351.273 116ZM368.053 116.08C366.947 116.08 365.96 115.847 365.093 115.38C364.24 114.9 363.567 114.247 363.073 113.42C362.593 112.58 362.353 111.62 362.353 110.54C362.353 109.447 362.58 108.487 363.033 107.66C363.5 106.82 364.14 106.167 364.953 105.7C365.767 105.22 366.7 104.98 367.753 104.98C368.793 104.98 369.687 105.213 370.433 105.68C371.18 106.133 371.747 106.767 372.133 107.58C372.533 108.38 372.733 109.307 372.733 110.36C372.733 110.613 372.647 110.827 372.473 111C372.3 111.16 372.08 111.24 371.813 111.24H363.753V109.64H371.753L370.933 110.2C370.92 109.533 370.787 108.94 370.533 108.42C370.28 107.887 369.92 107.467 369.453 107.16C368.987 106.853 368.42 106.7 367.753 106.7C366.993 106.7 366.34 106.867 365.793 107.2C365.26 107.533 364.853 107.993 364.573 108.58C364.293 109.153 364.153 109.807 364.153 110.54C364.153 111.273 364.32 111.927 364.653 112.5C364.987 113.073 365.447 113.527 366.033 113.86C366.62 114.193 367.293 114.36 368.053 114.36C368.467 114.36 368.887 114.287 369.313 114.14C369.753 113.98 370.107 113.8 370.373 113.6C370.573 113.453 370.787 113.38 371.013 113.38C371.253 113.367 371.46 113.433 371.633 113.58C371.86 113.78 371.98 114 371.993 114.24C372.007 114.48 371.9 114.687 371.673 114.86C371.22 115.22 370.653 115.513 369.973 115.74C369.307 115.967 368.667 116.08 368.053 116.08ZM376.315 109.16C376.315 108.36 376.508 107.647 376.895 107.02C377.295 106.38 377.828 105.873 378.495 105.5C379.162 105.127 379.895 104.94 380.695 104.94C381.495 104.94 382.088 105.073 382.475 105.34C382.875 105.593 383.028 105.9 382.935 106.26C382.895 106.447 382.815 106.593 382.695 106.7C382.588 106.793 382.462 106.853 382.315 106.88C382.168 106.907 382.008 106.9 381.835 106.86C380.982 106.687 380.215 106.673 379.535 106.82C378.855 106.967 378.315 107.24 377.915 107.64C377.528 108.04 377.335 108.547 377.335 109.16H376.315ZM376.335 116C376.015 116 375.768 115.92 375.595 115.76C375.422 115.587 375.335 115.333 375.335 115V106.06C375.335 105.74 375.422 105.493 375.595 105.32C375.768 105.147 376.015 105.06 376.335 105.06C376.668 105.06 376.915 105.147 377.075 105.32C377.248 105.48 377.335 105.727 377.335 106.06V115C377.335 115.32 377.248 115.567 377.075 115.74C376.915 115.913 376.668 116 376.335 116ZM389.401 116.08C388.294 116.08 387.308 115.847 386.441 115.38C385.588 114.9 384.914 114.247 384.421 113.42C383.941 112.58 383.701 111.62 383.701 110.54C383.701 109.447 383.928 108.487 384.381 107.66C384.848 106.82 385.488 106.167 386.301 105.7C387.114 105.22 388.048 104.98 389.101 104.98C390.141 104.98 391.034 105.213 391.781 105.68C392.528 106.133 393.094 106.767 393.481 107.58C393.881 108.38 394.081 109.307 394.081 110.36C394.081 110.613 393.994 110.827 393.821 111C393.648 111.16 393.428 111.24 393.161 111.24H385.101V109.64H393.101L392.281 110.2C392.268 109.533 392.134 108.94 391.881 108.42C391.628 107.887 391.268 107.467 390.801 107.16C390.334 106.853 389.768 106.7 389.101 106.7C388.341 106.7 387.688 106.867 387.141 107.2C386.608 107.533 386.201 107.993 385.921 108.58C385.641 109.153 385.501 109.807 385.501 110.54C385.501 111.273 385.668 111.927 386.001 112.5C386.334 113.073 386.794 113.527 387.381 113.86C387.968 114.193 388.641 114.36 389.401 114.36C389.814 114.36 390.234 114.287 390.661 114.14C391.101 113.98 391.454 113.8 391.721 113.6C391.921 113.453 392.134 113.38 392.361 113.38C392.601 113.367 392.808 113.433 392.981 113.58C393.208 113.78 393.328 114 393.341 114.24C393.354 114.48 393.248 114.687 393.021 114.86C392.568 115.22 392.001 115.513 391.321 115.74C390.654 115.967 390.014 116.08 389.401 116.08ZM401.252 116.08C400.212 116.08 399.272 115.84 398.432 115.36C397.606 114.867 396.946 114.2 396.452 113.36C395.972 112.52 395.732 111.573 395.732 110.52C395.732 109.467 395.952 108.527 396.392 107.7C396.846 106.86 397.459 106.2 398.232 105.72C399.006 105.227 399.879 104.98 400.852 104.98C401.639 104.98 402.366 105.147 403.032 105.48C403.699 105.8 404.259 106.24 404.712 106.8V101.4C404.712 101.093 404.806 100.847 404.992 100.66C405.192 100.473 405.439 100.38 405.732 100.38C406.039 100.38 406.286 100.473 406.472 100.66C406.659 100.847 406.752 101.093 406.752 101.4V110.52C406.752 111.573 406.506 112.52 406.012 113.36C405.532 114.2 404.879 114.867 404.052 115.36C403.226 115.84 402.292 116.08 401.252 116.08ZM401.252 114.28C401.932 114.28 402.539 114.12 403.072 113.8C403.606 113.467 404.026 113.013 404.332 112.44C404.639 111.867 404.792 111.227 404.792 110.52C404.792 109.8 404.639 109.16 404.332 108.6C404.026 108.04 403.606 107.6 403.072 107.28C402.539 106.947 401.932 106.78 401.252 106.78C400.586 106.78 399.979 106.947 399.432 107.28C398.899 107.6 398.472 108.04 398.152 108.6C397.846 109.16 397.692 109.8 397.692 110.52C397.692 111.227 397.846 111.867 398.152 112.44C398.472 113.013 398.899 113.467 399.432 113.8C399.979 114.12 400.586 114.28 401.252 114.28ZM421.714 116.08C420.674 116.08 419.741 115.84 418.914 115.36C418.087 114.867 417.434 114.2 416.954 113.36C416.474 112.52 416.227 111.573 416.214 110.52V101.4C416.214 101.093 416.307 100.847 416.494 100.66C416.694 100.473 416.941 100.38 417.234 100.38C417.541 100.38 417.787 100.473 417.974 100.66C418.161 100.847 418.254 101.093 418.254 101.4V106.8C418.721 106.24 419.281 105.8 419.934 105.48C420.601 105.147 421.327 104.98 422.114 104.98C423.087 104.98 423.961 105.227 424.734 105.72C425.507 106.2 426.114 106.86 426.554 107.7C427.007 108.527 427.234 109.467 427.234 110.52C427.234 111.573 426.987 112.52 426.494 113.36C426.014 114.2 425.361 114.867 424.534 115.36C423.707 115.84 422.767 116.08 421.714 116.08ZM421.714 114.28C422.394 114.28 423.001 114.12 423.534 113.8C424.067 113.467 424.487 113.013 424.794 112.44C425.114 111.867 425.274 111.227 425.274 110.52C425.274 109.8 425.114 109.16 424.794 108.6C424.487 108.04 424.067 107.6 423.534 107.28C423.001 106.947 422.394 106.78 421.714 106.78C421.047 106.78 420.441 106.947 419.894 107.28C419.361 107.6 418.941 108.04 418.634 108.6C418.327 109.16 418.174 109.8 418.174 110.52C418.174 111.227 418.327 111.867 418.634 112.44C418.941 113.013 419.361 113.467 419.894 113.8C420.441 114.12 421.047 114.28 421.714 114.28ZM431.631 120.8C431.498 120.8 431.338 120.76 431.151 120.68C430.564 120.413 430.404 119.993 430.671 119.42L436.771 105.64C437.038 105.08 437.458 104.92 438.031 105.16C438.631 105.413 438.798 105.833 438.531 106.42L432.411 120.18C432.251 120.593 431.991 120.8 431.631 120.8ZM433.991 115.56C433.738 115.667 433.498 115.68 433.271 115.6C433.058 115.507 432.884 115.333 432.751 115.08L428.171 106.38C428.038 106.127 428.018 105.887 428.111 105.66C428.218 105.42 428.398 105.247 428.651 105.14C428.904 105.033 429.144 105.027 429.371 105.12C429.598 105.2 429.771 105.367 429.891 105.62L434.271 114.32C434.404 114.573 434.451 114.82 434.411 115.06C434.384 115.287 434.244 115.453 433.991 115.56Z" fill="#3C91BB"/>
<path d="M460.725 96.1475C462.748 94.9669 465.252 94.9669 467.275 96.1475L474.275 100.23C476.272 101.395 477.5 103.533 477.5 105.845V114.155C477.5 116.467 476.272 118.605 474.275 119.77L467.275 123.853C465.252 125.033 462.748 125.033 460.725 123.853L453.725 119.77C451.728 118.605 450.5 116.467 450.5 114.155V105.845C450.5 103.533 451.728 101.395 453.725 100.23L460.725 96.1475Z" stroke="url(#paint2_linear_1525_143)" stroke-width="3"/>
<path d="M490.675 118.1C489.292 118.1 488.058 117.808 486.975 117.225C485.908 116.625 485.067 115.808 484.45 114.775C483.85 113.725 483.55 112.525 483.55 111.175C483.55 109.808 483.833 108.608 484.4 107.575C484.983 106.525 485.783 105.708 486.8 105.125C487.817 104.525 488.983 104.225 490.3 104.225C491.6 104.225 492.717 104.517 493.65 105.1C494.583 105.667 495.292 106.458 495.775 107.475C496.275 108.475 496.525 109.633 496.525 110.95C496.525 111.267 496.417 111.533 496.2 111.75C495.983 111.95 495.708 112.05 495.375 112.05H485.3V110.05H495.3L494.275 110.75C494.258 109.917 494.092 109.175 493.775 108.525C493.458 107.858 493.008 107.333 492.425 106.95C491.842 106.567 491.133 106.375 490.3 106.375C489.35 106.375 488.533 106.583 487.85 107C487.183 107.417 486.675 107.992 486.325 108.725C485.975 109.442 485.8 110.258 485.8 111.175C485.8 112.092 486.008 112.908 486.425 113.625C486.842 114.342 487.417 114.908 488.15 115.325C488.883 115.742 489.725 115.95 490.675 115.95C491.192 115.95 491.717 115.858 492.25 115.675C492.8 115.475 493.242 115.25 493.575 115C493.825 114.817 494.092 114.725 494.375 114.725C494.675 114.708 494.933 114.792 495.15 114.975C495.433 115.225 495.583 115.5 495.6 115.8C495.617 116.1 495.483 116.358 495.2 116.575C494.633 117.025 493.925 117.392 493.075 117.675C492.242 117.958 491.442 118.1 490.675 118.1ZM503.914 117.975C503.397 117.975 502.997 117.7 502.714 117.15L497.414 105.975C497.281 105.692 497.264 105.417 497.364 105.15C497.481 104.867 497.697 104.65 498.014 104.5C498.297 104.35 498.581 104.325 498.864 104.425C499.164 104.525 499.389 104.717 499.539 105L504.489 115.675H503.289L508.189 105C508.339 104.717 508.564 104.525 508.864 104.425C509.181 104.325 509.497 104.35 509.814 104.5C510.114 104.633 510.314 104.842 510.414 105.125C510.514 105.408 510.497 105.692 510.364 105.975L505.064 117.15C504.814 117.7 504.431 117.975 503.914 117.975ZM518.697 118.1C517.347 118.1 516.155 117.808 515.122 117.225C514.089 116.625 513.272 115.808 512.672 114.775C512.089 113.725 511.797 112.525 511.797 111.175C511.797 109.808 512.089 108.608 512.672 107.575C513.272 106.525 514.089 105.708 515.122 105.125C516.155 104.525 517.347 104.225 518.697 104.225C520.03 104.225 521.214 104.525 522.247 105.125C523.28 105.708 524.089 106.525 524.672 107.575C525.272 108.608 525.572 109.808 525.572 111.175C525.572 112.525 525.28 113.725 524.697 114.775C524.114 115.808 523.305 116.625 522.272 117.225C521.239 117.808 520.047 118.1 518.697 118.1ZM518.697 115.85C519.564 115.85 520.33 115.65 520.997 115.25C521.664 114.85 522.18 114.3 522.547 113.6C522.93 112.9 523.122 112.092 523.122 111.175C523.122 110.258 522.93 109.45 522.547 108.75C522.18 108.033 521.664 107.475 520.997 107.075C520.33 106.675 519.564 106.475 518.697 106.475C517.83 106.475 517.064 106.675 516.397 107.075C515.73 107.475 515.205 108.033 514.822 108.75C514.439 109.45 514.247 110.258 514.247 111.175C514.247 112.092 514.439 112.9 514.822 113.6C515.205 114.3 515.73 114.85 516.397 115.25C517.064 115.65 517.83 115.85 518.697 115.85ZM532.617 118C531.884 118 531.234 117.8 530.667 117.4C530.101 117 529.659 116.458 529.342 115.775C529.026 115.075 528.867 114.275 528.867 113.375V99.725C528.867 99.3583 528.984 99.0583 529.217 98.825C529.451 98.5917 529.751 98.475 530.117 98.475C530.484 98.475 530.784 98.5917 531.017 98.825C531.251 99.0583 531.367 99.3583 531.367 99.725V113.375C531.367 113.992 531.484 114.5 531.717 114.9C531.951 115.3 532.251 115.5 532.617 115.5H533.242C533.576 115.5 533.842 115.617 534.042 115.85C534.259 116.083 534.367 116.383 534.367 116.75C534.367 117.117 534.209 117.417 533.892 117.65C533.576 117.883 533.167 118 532.667 118H532.617ZM540.73 117.975C540.214 117.975 539.814 117.7 539.53 117.15L534.23 105.975C534.097 105.692 534.08 105.417 534.18 105.15C534.297 104.867 534.514 104.65 534.83 104.5C535.114 104.35 535.397 104.325 535.68 104.425C535.98 104.525 536.205 104.717 536.355 105L541.305 115.675H540.105L545.005 105C545.155 104.717 545.38 104.525 545.68 104.425C545.997 104.325 546.314 104.35 546.63 104.5C546.93 104.633 547.13 104.842 547.23 105.125C547.33 105.408 547.314 105.692 547.18 105.975L541.88 117.15C541.63 117.7 541.247 117.975 540.73 117.975ZM555.738 118.1C554.355 118.1 553.122 117.808 552.038 117.225C550.972 116.625 550.13 115.808 549.513 114.775C548.913 113.725 548.613 112.525 548.613 111.175C548.613 109.808 548.897 108.608 549.463 107.575C550.047 106.525 550.847 105.708 551.863 105.125C552.88 104.525 554.047 104.225 555.363 104.225C556.663 104.225 557.78 104.517 558.713 105.1C559.647 105.667 560.355 106.458 560.838 107.475C561.338 108.475 561.588 109.633 561.588 110.95C561.588 111.267 561.48 111.533 561.263 111.75C561.047 111.95 560.772 112.05 560.438 112.05H550.363V110.05H560.363L559.338 110.75C559.322 109.917 559.155 109.175 558.838 108.525C558.522 107.858 558.072 107.333 557.488 106.95C556.905 106.567 556.197 106.375 555.363 106.375C554.413 106.375 553.597 106.583 552.913 107C552.247 107.417 551.738 107.992 551.388 108.725C551.038 109.442 550.863 110.258 550.863 111.175C550.863 112.092 551.072 112.908 551.488 113.625C551.905 114.342 552.48 114.908 553.213 115.325C553.947 115.742 554.788 115.95 555.738 115.95C556.255 115.95 556.78 115.858 557.313 115.675C557.863 115.475 558.305 115.25 558.638 115C558.888 114.817 559.155 114.725 559.438 114.725C559.738 114.708 559.997 114.792 560.213 114.975C560.497 115.225 560.647 115.5 560.663 115.8C560.68 116.1 560.547 116.358 560.263 116.575C559.697 117.025 558.988 117.392 558.138 117.675C557.305 117.958 556.505 118.1 555.738 118.1ZM569.816 118.1C568.649 118.1 567.566 117.925 566.566 117.575C565.582 117.208 564.816 116.75 564.266 116.2C564.016 115.933 563.907 115.633 563.941 115.3C563.991 114.95 564.157 114.667 564.441 114.45C564.774 114.183 565.099 114.075 565.416 114.125C565.749 114.158 566.032 114.3 566.266 114.55C566.549 114.867 566.999 115.167 567.616 115.45C568.249 115.717 568.949 115.85 569.716 115.85C570.682 115.85 571.416 115.692 571.916 115.375C572.432 115.058 572.699 114.65 572.716 114.15C572.732 113.65 572.491 113.217 571.991 112.85C571.507 112.483 570.616 112.183 569.316 111.95C567.632 111.617 566.407 111.117 565.641 110.45C564.891 109.783 564.516 108.967 564.516 108C564.516 107.15 564.766 106.45 565.266 105.9C565.766 105.333 566.407 104.917 567.191 104.65C567.974 104.367 568.791 104.225 569.641 104.225C570.741 104.225 571.716 104.4 572.566 104.75C573.416 105.1 574.091 105.583 574.591 106.2C574.824 106.467 574.932 106.75 574.916 107.05C574.899 107.333 574.757 107.575 574.491 107.775C574.224 107.958 573.907 108.017 573.541 107.95C573.174 107.883 572.866 107.733 572.616 107.5C572.199 107.1 571.749 106.825 571.266 106.675C570.782 106.525 570.224 106.45 569.591 106.45C568.857 106.45 568.232 106.575 567.716 106.825C567.216 107.075 566.966 107.442 566.966 107.925C566.966 108.225 567.041 108.5 567.191 108.75C567.357 108.983 567.674 109.2 568.141 109.4C568.607 109.583 569.291 109.767 570.191 109.95C571.441 110.2 572.424 110.517 573.141 110.9C573.874 111.283 574.399 111.733 574.716 112.25C575.032 112.75 575.191 113.333 575.191 114C575.191 114.767 574.982 115.458 574.566 116.075C574.166 116.692 573.566 117.183 572.766 117.55C571.982 117.917 570.999 118.1 569.816 118.1Z" fill="url(#paint3_linear_1525_143)"/>
<defs>
<linearGradient id="paint0_linear_1525_143" x1="56" y1="0" x2="56" y2="129" gradientUnits="userSpaceOnUse">
<stop stop-color="#00C389"/>
<stop offset="1" stop-color="#4298B5"/>
</linearGradient>
<linearGradient id="paint1_linear_1525_143" x1="349.5" y1="1.5" x2="349.5" y2="82.5" gradientUnits="userSpaceOnUse">
<stop stop-color="#00C389"/>
<stop offset="1" stop-color="#4298B5"/>
</linearGradient>
<linearGradient id="paint2_linear_1525_143" x1="464" y1="92.5" x2="464" y2="127.5" gradientUnits="userSpaceOnUse">
<stop stop-color="#00C389"/>
<stop offset="1" stop-color="#4298B5"/>
</linearGradient>
<linearGradient id="paint3_linear_1525_143" x1="529.5" y1="95" x2="529.5" y2="125" gradientUnits="userSpaceOnUse">
<stop stop-color="#00C389"/>
<stop offset="1" stop-color="#4298B5"/>
</linearGradient>
</defs>
</svg>
